<svg width="23" height="22" viewBox="0 0 23 22" fill="none" xmlns="http://www.w3.org/2000/svg">
<path d="M21.51 17.33C21.51 17.69 21.43 18.06 21.26 18.42C21.09 18.78 20.87 19.12 20.58 19.44C20.09 19.98 19.55 20.37 18.94 20.62C18.34 20.87 17.69 21 16.99 21C15.97 21 14.88 20.76 13.73 20.27C12.58 19.78 11.43 19.12 10.29 18.29C9.14004 17.45 8.05004 16.52 7.01004 15.49C5.98004 14.45 5.05004 13.36 4.22004 12.22C3.40004 11.08 2.74004 9.94 2.26004 8.81C1.78004 7.67 1.54004 6.58 1.54004 5.54C1.54004 4.86 1.66004 4.21 1.90004 3.61C2.14004 3 2.52004 2.44 3.05004 1.94C3.69004 1.31 4.39004 1 5.13004 1C5.41004 1 5.69004 1.06 5.94004 1.18C6.20004 1.3 6.43004 1.48 6.61004 1.74L8.93004 5.01C9.11004 5.26 9.24004 5.49 9.33004 5.71C9.42004 5.92 9.47004 6.13 9.47004 6.32C9.47004 6.56 9.40004 6.8 9.26004 7.03C9.13004 7.26 8.94004 7.5 8.70004 7.74L7.94004 8.53C7.83004 8.64 7.78004 8.77 7.78004 8.93C7.78004 9.01 7.79004 9.08 7.81004 9.16C7.84004 9.24 7.87004 9.3 7.89004 9.36C8.07004 9.69 8.38004 10.12 8.82004 10.64C9.27004 11.16 9.75004 11.69 10.27 12.22C10.81 12.75 11.33 13.24 11.86 13.69C12.38 14.13 12.81 14.43 13.15 14.61C13.2 14.63 13.26 14.66 13.33 14.69C13.41 14.72 13.49 14.73 13.58 14.73C13.75 14.73 13.88 14.67 13.99 14.56L14.75 13.81C15 13.56 15.24 13.37 15.47 13.25C15.7 13.11 15.93 13.04 16.18 13.04C16.37 13.04 16.57 13.08 16.79 13.17C17.01 13.26 17.24 13.39 17.49 13.56L20.8 15.91C21.06 16.09 21.24 16.3 21.35 16.55C21.45 16.8 21.51 17.05 21.51 17.33Z" stroke="#FAFAFA" stroke-width="1.5" stroke-miterlimit="10"/>
<path d="M18.04 8C18.04 7.4 17.57 6.48 16.87 5.73C16.23 5.04 15.38 4.5 14.54 4.5" stroke="#FAFAFA" stroke-width="1.5" stroke-linecap="round" stroke-linejoin="round"/>
<path d="M21.54 8C21.54 4.13 18.41 1 14.54 1" stroke="#FAFAFA" stroke-width="1.5" stroke-linecap="round" stroke-linejoin="round"/>
</svg>
