<svg width="40" height="40" viewBox="0 0 40 40" fill="none" xmlns="http://www.w3.org/2000/svg">
<rect width="40" height="40" rx="20" fill="url(#paint0_linear_699_4527)"/>
<path d="M19.9999 21.6333L14.2833 27.3499C14.0694 27.5638 13.7972 27.6708 13.4666 27.6708C13.136 27.6708 12.8638 27.5638 12.6499 27.3499C12.436 27.136 12.3291 26.8638 12.3291 26.5333C12.3291 26.2027 12.436 25.9305 12.6499 25.7166L18.3666 19.9999L12.6499 14.2833C12.436 14.0694 12.3291 13.7972 12.3291 13.4666C12.3291 13.136 12.436 12.8638 12.6499 12.6499C12.8638 12.436 13.136 12.3291 13.4666 12.3291C13.7972 12.3291 14.0694 12.436 14.2833 12.6499L19.9999 18.3666L25.7166 12.6499C25.9305 12.436 26.2027 12.3291 26.5333 12.3291C26.8638 12.3291 27.136 12.436 27.3499 12.6499C27.5638 12.8638 27.6708 13.136 27.6708 13.4666C27.6708 13.7972 27.5638 14.0694 27.3499 14.2833L21.6333 19.9999L27.3499 25.7166C27.5638 25.9305 27.6708 26.2027 27.6708 26.5333C27.6708 26.8638 27.5638 27.136 27.3499 27.3499C27.136 27.5638 26.8638 27.6708 26.5333 27.6708C26.2027 27.6708 25.9305 27.5638 25.7166 27.3499L19.9999 21.6333Z" fill="#FAFAFA"/>
<defs>
<linearGradient id="paint0_linear_699_4527" x1="-5.17373e-07" y1="19.919" x2="32.3754" y2="35.6305" gradientUnits="userSpaceOnUse">
<stop offset="0.000475632" stop-color="#41D7EC"/>
<stop offset="1" stop-color="#C904DE"/>
</linearGradient>
</defs>
</svg>
