<svg width="162" height="136" viewBox="0 0 162 136" fill="none" xmlns="http://www.w3.org/2000/svg">
<g filter="url(#filter0_bdii_1243_6835)">
<rect x="57" y="57.5" width="48" height="48" rx="8" fill="white"/>
</g>
<g filter="url(#filter1_f_1243_6835)">
<path d="M91.9712 81.4876C91.9688 79.3929 91.3668 77.3427 90.2363 75.5792C89.1059 73.8158 87.4942 72.4128 85.5918 71.5361C83.6895 70.6593 81.5759 70.3455 79.5008 70.6317C77.4258 70.9179 75.476 71.7921 73.882 73.151C72.2879 74.51 71.1162 76.2968 70.5053 78.3004C69.8944 80.3041 69.8698 82.4407 70.4345 84.4578C70.9991 86.475 72.1294 88.2883 73.6918 89.6835C75.2542 91.0788 77.1833 91.9976 79.2512 92.3314V84.6619H76.4671V81.4876H79.2512V79.0862C79.2512 76.3396 80.8947 74.8162 83.4011 74.8162C84.2234 74.8277 85.0436 74.9005 85.8551 75.0338V77.7354H84.4668C84.231 77.7043 83.9913 77.7264 83.7652 77.8001C83.5391 77.8739 83.3324 77.9973 83.1604 78.1615C82.9883 78.3256 82.8552 78.5263 82.7709 78.7486C82.6866 78.971 82.6532 79.2094 82.6732 79.4464V81.4876H85.72L85.2172 84.6619H82.6807V92.3314C85.2673 91.9273 87.6246 90.6128 89.3279 88.6247C91.0312 86.6366 91.9686 84.1056 91.9712 81.4876Z" fill="url(#paint0_linear_1243_6835)"/>
<path d="M83.1807 91.7306V85.1619H85.2172H85.6442L85.7111 84.7402L86.2139 81.5658L86.3054 80.9876H85.72H83.1732V79.4464V79.4253L83.1715 79.4044C83.1577 79.2419 83.1806 79.0784 83.2384 78.9259C83.2963 78.7734 83.3875 78.6358 83.5055 78.5233C83.6235 78.4107 83.7652 78.326 83.9202 78.2755C84.0753 78.2249 84.2397 78.2097 84.4013 78.2311L84.4339 78.2354H84.4668H85.8551H86.3551V77.7354V75.0338V74.6093L85.9362 74.5404C85.1002 74.4031 84.2552 74.3281 83.4082 74.3162V74.3162H83.4011C82.0465 74.3162 80.8706 74.7297 80.0327 75.5676C79.1942 76.4062 78.7512 77.6125 78.7512 79.0862V80.9876H76.4671H75.9671V81.4876V84.6619V85.1619H76.4671H78.7512V91.7274C76.9976 91.3419 75.369 90.511 74.0249 89.3106C72.5337 87.9789 71.4549 86.2482 70.916 84.323C70.377 82.3978 70.4005 80.3586 70.9836 78.4463C71.5666 76.534 72.6849 74.8285 74.2064 73.5315C75.7278 72.2345 77.5886 71.4001 79.5691 71.127C81.5496 70.8539 83.5669 71.1534 85.3826 71.9902C87.1982 72.8269 88.7364 74.166 89.8154 75.8491C90.8942 77.532 91.4688 79.4886 91.4712 81.4877C91.4686 83.9863 90.5739 86.4019 88.9482 88.2994C87.45 90.048 85.4218 91.2507 83.1807 91.7306Z" stroke="black"/>
</g>
<circle cx="80.9997" cy="81.5002" r="10.9714" fill="white"/>
<path d="M91.9712 81.4876C91.9688 79.3929 91.3668 77.3427 90.2363 75.5792C89.1059 73.8158 87.4942 72.4128 85.5918 71.5361C83.6895 70.6593 81.5759 70.3455 79.5008 70.6317C77.4258 70.9179 75.476 71.7921 73.882 73.151C72.2879 74.51 71.1162 76.2968 70.5053 78.3004C69.8944 80.3041 69.8698 82.4407 70.4345 84.4578C70.9991 86.475 72.1294 88.2883 73.6918 89.6835C75.2542 91.0788 77.1833 91.9976 79.2512 92.3314V84.6619H76.4671V81.4876H79.2512V79.0862C79.2512 76.3396 80.8947 74.8162 83.4011 74.8162C84.2234 74.8277 85.0436 74.9005 85.8551 75.0338V77.7354H84.4668C84.231 77.7043 83.9913 77.7264 83.7652 77.8001C83.5391 77.8739 83.3324 77.9973 83.1604 78.1615C82.9883 78.3256 82.8552 78.5263 82.7709 78.7486C82.6866 78.971 82.6532 79.2094 82.6732 79.4464V81.4876H85.72L85.2172 84.6619H82.6807V92.3314C85.2673 91.9273 87.6246 90.6128 89.3279 88.6247C91.0312 86.6366 91.9686 84.1056 91.9712 81.4876Z" fill="url(#paint1_linear_1243_6835)"/>
<g filter="url(#filter2_f_1243_6835)">
<path d="M97.2286 103.9H65C66.9803 102.224 72.9903 98.8716 81.1885 98.8716C89.3868 98.8716 95.2978 102.224 97.2286 103.9Z" fill="url(#paint2_linear_1243_6835)"/>
</g>
<defs>
<filter id="filter0_bdii_1243_6835" x="-171" y="-170.5" width="504" height="504" filterUnits="userSpaceOnUse" color-interpolation-filters="sRGB">
<feFlood flood-opacity="0" result="BackgroundImageFix"/>
<feGaussianBlur in="BackgroundImageFix" stdDeviation="114"/>
<feComposite in2="SourceAlpha" operator="in" result="effect1_backgroundBlur_1243_6835"/>
<feColorMatrix in="SourceAlpha" type="matrix" values="0 0 0 0 0 0 0 0 0 0 0 0 0 0 0 0 0 0 127 0" result="hardAlpha"/>
<feOffset dy="4"/>
<feGaussianBlur stdDeviation="2"/>
<feComposite in2="hardAlpha" operator="out"/>
<feColorMatrix type="matrix" values="0 0 0 0 0 0 0 0 0 0 0 0 0 0 0 0 0 0 0.25 0"/>
<feBlend mode="normal" in2="effect1_backgroundBlur_1243_6835" result="effect2_dropShadow_1243_6835"/>
<feBlend mode="normal" in="SourceGraphic" in2="effect2_dropShadow_1243_6835" result="shape"/>
<feColorMatrix in="SourceAlpha" type="matrix" values="0 0 0 0 0 0 0 0 0 0 0 0 0 0 0 0 0 0 127 0" result="hardAlpha"/>
<feOffset dx="3" dy="5"/>
<feGaussianBlur stdDeviation="1.5"/>
<feComposite in2="hardAlpha" operator="arithmetic" k2="-1" k3="1"/>
<feColorMatrix type="matrix" values="0 0 0 0 1 0 0 0 0 1 0 0 0 0 1 0 0 0 0.15 0"/>
<feBlend mode="normal" in2="shape" result="effect3_innerShadow_1243_6835"/>
<feColorMatrix in="SourceAlpha" type="matrix" values="0 0 0 0 0 0 0 0 0 0 0 0 0 0 0 0 0 0 127 0" result="hardAlpha"/>
<feOffset dx="-1" dy="-1"/>
<feGaussianBlur stdDeviation="2"/>
<feComposite in2="hardAlpha" operator="arithmetic" k2="-1" k3="1"/>
<feColorMatrix type="matrix" values="0 0 0 0 1 0 0 0 0 1 0 0 0 0 1 0 0 0 0.15 0"/>
<feBlend mode="normal" in2="effect3_innerShadow_1243_6835" result="effect4_innerShadow_1243_6835"/>
</filter>
<filter id="filter1_f_1243_6835" x="0.0283203" y="0.528809" width="161.942" height="161.803" filterUnits="userSpaceOnUse" color-interpolation-filters="sRGB">
<feFlood flood-opacity="0" result="BackgroundImageFix"/>
<feBlend mode="normal" in="SourceGraphic" in2="BackgroundImageFix" result="shape"/>
<feGaussianBlur stdDeviation="35" result="effect1_foregroundBlur_1243_6835"/>
</filter>
<filter id="filter2_f_1243_6835" x="24" y="57.8716" width="114.229" height="87.0288" filterUnits="userSpaceOnUse" color-interpolation-filters="sRGB">
<feFlood flood-opacity="0" result="BackgroundImageFix"/>
<feBlend mode="normal" in="SourceGraphic" in2="BackgroundImageFix" result="shape"/>
<feGaussianBlur stdDeviation="20.5" result="effect1_foregroundBlur_1243_6835"/>
</filter>
<linearGradient id="paint0_linear_1243_6835" x1="73.2102" y1="73.7355" x2="88.7293" y2="89.2471" gradientUnits="userSpaceOnUse">
<stop stop-color="#4676ED"/>
<stop offset="0.19" stop-color="#436DE4"/>
<stop offset="0.49" stop-color="#3C55CD"/>
<stop offset="0.87" stop-color="#302EA8"/>
<stop offset="1" stop-color="#2B1E99"/>
</linearGradient>
<linearGradient id="paint1_linear_1243_6835" x1="73.2102" y1="73.7355" x2="88.7293" y2="89.2471" gradientUnits="userSpaceOnUse">
<stop stop-color="#4676ED"/>
<stop offset="0.19" stop-color="#436DE4"/>
<stop offset="0.49" stop-color="#3C55CD"/>
<stop offset="0.87" stop-color="#302EA8"/>
<stop offset="1" stop-color="#2B1E99"/>
</linearGradient>
<linearGradient id="paint2_linear_1243_6835" x1="69.6734" y1="99.6112" x2="70.7709" y2="106.597" gradientUnits="userSpaceOnUse">
<stop stop-color="#4676ED"/>
<stop offset="0.19" stop-color="#436DE4"/>
<stop offset="0.49" stop-color="#3C55CD"/>
<stop offset="0.87" stop-color="#302EA8"/>
<stop offset="1" stop-color="#2B1E99"/>
</linearGradient>
</defs>
</svg>
