<svg width="40" height="40" viewBox="0 0 40 40" fill="none" xmlns="http://www.w3.org/2000/svg">
<rect width="40" height="40" rx="20" fill="url(#paint0_linear_361_1114)"/>
<path d="M12 26C11.7167 26 11.4793 25.904 11.288 25.712C11.096 25.5207 11 25.2833 11 25C11 24.7167 11.096 24.4793 11.288 24.288C11.4793 24.096 11.7167 24 12 24H28C28.2833 24 28.5207 24.096 28.712 24.288C28.904 24.4793 29 24.7167 29 25C29 25.2833 28.904 25.5207 28.712 25.712C28.5207 25.904 28.2833 26 28 26H12ZM12 21C11.7167 21 11.4793 20.904 11.288 20.712C11.096 20.5207 11 20.2833 11 20C11 19.7167 11.096 19.479 11.288 19.287C11.4793 19.0957 11.7167 19 12 19H28C28.2833 19 28.5207 19.0957 28.712 19.287C28.904 19.479 29 19.7167 29 20C29 20.2833 28.904 20.5207 28.712 20.712C28.5207 20.904 28.2833 21 28 21H12ZM12 16C11.7167 16 11.4793 15.9043 11.288 15.713C11.096 15.521 11 15.2833 11 15C11 14.7167 11.096 14.479 11.288 14.287C11.4793 14.0957 11.7167 14 12 14H28C28.2833 14 28.5207 14.0957 28.712 14.287C28.904 14.479 29 14.7167 29 15C29 15.2833 28.904 15.521 28.712 15.713C28.5207 15.9043 28.2833 16 28 16H12Z" fill="#FAFAFA"/>
<defs>
<linearGradient id="paint0_linear_361_1114" x1="-5.17373e-07" y1="19.919" x2="32.3754" y2="35.6305" gradientUnits="userSpaceOnUse">
<stop offset="0.000475632" stop-color="#41D7EC"/>
<stop offset="1" stop-color="#C904DE"/>
</linearGradient>
</defs>
</svg>
