<svg width="24" height="24" viewBox="0 0 24 24" fill="none" xmlns="http://www.w3.org/2000/svg">
<path d="M2.57764 5.51583C2 6.73898 2 8.48535 2 11.55C2 15.1122 2 16.8934 2.90717 18.142C3.20015 18.5452 3.55477 18.8999 3.95802 19.1928C5.20663 20.1 6.98775 20.1 10.55 20.1H12.45C16.0122 20.1 17.7934 20.1 19.042 19.1928C19.4452 18.8999 19.7999 18.5452 20.0928 18.142C21 16.8934 21 15.1122 21 11.55C21 8.46369 21 6.71436 20.41 5.48998M2.57764 5.51583C2.67143 5.31724 2.78045 5.13243 2.90717 4.95802C3.20015 4.55477 3.55477 4.20015 3.95802 3.90717C5.20663 3 6.98775 3 10.55 3H12.45C16.0122 3 17.7934 3 19.042 3.90717C19.4452 4.20015 19.7999 4.55477 20.0928 4.95802C20.214 5.12484 20.319 5.30117 20.41 5.48998M2.57764 5.51583L2.95 5.85L4.78249 7.68249C7.94915 10.8492 9.53249 12.4325 11.5 12.4325C13.4675 12.4325 15.0508 10.8492 18.2175 7.68249L20.05 5.85L20.41 5.48998" stroke="#00C3FF" stroke-width="1.5"/>
</svg>
