<svg xmlns="http://www.w3.org/2000/svg" width="21" height="19" viewBox="0 0 21 19" fill="none">
<path d="M1.57764 3.51583C1 4.73898 1 6.48535 1 9.55C1 13.1122 1 14.8934 1.90717 16.142C2.20015 16.5452 2.55477 16.8999 2.95802 17.1928C4.20663 18.1 5.98775 18.1 9.55 18.1H11.45C15.0122 18.1 16.7934 18.1 18.042 17.1928C18.4452 16.8999 18.7999 16.5452 19.0928 16.142C20 14.8934 20 13.1122 20 9.55C20 6.46369 20 4.71436 19.41 3.48998M1.57764 3.51583C1.67143 3.31724 1.78045 3.13243 1.90717 2.95802C2.20015 2.55477 2.55477 2.20015 2.95802 1.90717C4.20663 1 5.98775 1 9.55 1H11.45C15.0122 1 16.7934 1 18.042 1.90717C18.4452 2.20015 18.7999 2.55477 19.0928 2.95802C19.214 3.12484 19.319 3.30117 19.41 3.48998M1.57764 3.51583L1.95 3.85L3.78249 5.68249C6.94915 8.84915 8.53249 10.4325 10.5 10.4325C12.4675 10.4325 14.0508 8.84915 17.2175 5.68249L19.05 3.85L19.41 3.48998" stroke="#5708CD" stroke-width="1.5"/>
</svg>