<svg width="24" height="25" viewBox="0 0 24 25" fill="none" xmlns="http://www.w3.org/2000/svg">
<path d="M4.16989 15.7998L8.69989 20.3298C10.5599 22.1898 13.5799 22.1898 15.4499 20.3298L19.8399 15.9398C21.6999 14.0798 21.6999 11.0598 19.8399 9.1898L15.2999 4.6698C14.3499 3.7198 13.0399 3.2098 11.6999 3.2798L6.69989 3.5198C4.69989 3.6098 3.10989 5.1998 3.00989 7.1898L2.76989 12.1898C2.70989 13.5398 3.21989 14.8498 4.16989 15.7998Z" stroke="#FAFAFA" stroke-width="1.5" stroke-linecap="round" stroke-linejoin="round"/>
<path d="M9.49988 12.5C10.8806 12.5 11.9999 11.3807 11.9999 10C11.9999 8.61929 10.8806 7.5 9.49988 7.5C8.11917 7.5 6.99988 8.61929 6.99988 10C6.99988 11.3807 8.11917 12.5 9.49988 12.5Z" stroke="#FAFAFA" stroke-width="1.5" stroke-linecap="round"/>
</svg>
