<svg width="16" height="12" viewBox="0 0 16 12" fill="none" xmlns="http://www.w3.org/2000/svg">
<path d="M5.55061 11.575C5.41728 11.575 5.29228 11.554 5.17561 11.512C5.05894 11.4707 4.95061 11.4 4.85061 11.3L0.550611 7.00002C0.367278 6.81669 0.279611 6.57902 0.287611 6.28702C0.296278 5.99569 0.392277 5.75836 0.575611 5.57502C0.758944 5.39169 0.992278 5.30002 1.27561 5.30002C1.55894 5.30002 1.79228 5.39169 1.97561 5.57502L5.55061 9.15002L14.0256 0.675025C14.2089 0.491691 14.4466 0.400024 14.7386 0.400024C15.0299 0.400024 15.2673 0.491691 15.4506 0.675025C15.6339 0.858358 15.7256 1.09569 15.7256 1.38702C15.7256 1.67902 15.6339 1.91669 15.4506 2.10002L6.25061 11.3C6.15061 11.4 6.04228 11.4707 5.92561 11.512C5.80894 11.554 5.68394 11.575 5.55061 11.575Z" fill="#27AE60"/>
</svg>
